<svg xmlns="http://www.w3.org/2000/svg" width="28.963" height="28.983" viewBox="0 0 28.963 28.983">
  <path id="Path_33" data-name="Path 33" d="M29.187,20.59l-1.374-1.374a6.485,6.485,0,0,0-6.1-1.43l-1.243.271.271-1.243a6.541,6.541,0,0,0-1.458-6.13,6.541,6.541,0,0,0-6.1-1.458L11.937,9.5l.243-1.243a6.485,6.485,0,0,0-1.467-6.1L9.377.781A.935.935,0,0,0,8.05,2.1l.654.663L4.3,7.172A.938.938,0,0,0,5.64,8.489L9.966,4.163a4.055,4.055,0,0,1,.392.934l-5.27,5.214a3.738,3.738,0,0,1-1.617-.934L2.1,8.05A.935.935,0,0,0,.781,9.377l1.374,1.374a6.485,6.485,0,0,0,6.1,1.43L9.5,11.909l-.271,1.243a6.541,6.541,0,0,0,1.458,6.13,6.485,6.485,0,0,0,6.1,1.458l1.243-.271-.243,1.243a6.485,6.485,0,0,0,1.467,6.1l1.336,1.374a.932.932,0,1,0,1.318-1.318l2.542-2.542a.934.934,0,0,0-1.318-1.318L20.59,26.542V26.5a3.448,3.448,0,0,1-.523-.691l5.784-5.784a3.448,3.448,0,0,1,.691.523l1.374,1.374a.919.919,0,1,0,1.271-1.327ZM13.7,18.908a3.738,3.738,0,0,1-.934-.383l5.756-5.765a4,4,0,0,1,.383.934Zm-2.644-2.644,5.2-5.2a4,4,0,0,1,.934.383l-5.765,5.765a4,4,0,0,1-.374-.944ZM7.854,10.377h-.2L10.414,7.63v.187L9.966,9.891Zm5.719.673h.065l-2.6,2.6a.14.14,0,0,0,0-.065l.449-2.074Zm2.8,7.868H16.31l2.6-2.6a.14.14,0,0,0,0,.065L18.46,18.46Zm3.056,4.822a6.111,6.111,0,0,1,.14-1.626l.449-2.074,2.074-.449a6.148,6.148,0,0,1,1.626-.14Z" transform="translate(29.467 -0.504) rotate(90)" fill="#fff"/>
</svg>
