<svg id="Group_7" data-name="Group 7" xmlns="http://www.w3.org/2000/svg" xmlns:xlink="http://www.w3.org/1999/xlink" width="55.389" height="41.534" viewBox="0 0 55.389 41.534">
  <defs>
    <clipPath id="clip-path">
      <rect id="Rectangle_7" data-name="Rectangle 7" width="55.389" height="41.534" fill="none"/>
    </clipPath>
  </defs>
  <g id="Group_6" data-name="Group 6" clip-path="url(#clip-path)">
    <path id="Path_30" data-name="Path 30" d="M3.958,0A3.917,3.917,0,0,0,0,3.869v33.8a3.917,3.917,0,0,0,3.958,3.869H51.131a3.917,3.917,0,0,0,3.958-3.869V3.869A3.917,3.917,0,0,0,51.131,0Z" transform="translate(0)" fill="#fff"/>
    <path id="Path_31" data-name="Path 31" d="M16.714,13.345a2.823,2.823,0,0,1,2.129-2.639L20.552,0H2.229A2.137,2.137,0,0,0,.1,2.129V19.972ZM6.338,6.508H8.707V4.138h2.129V6.508h2.369V8.637H10.836v2.369H8.707V8.637H6.338Zm40.9,25.43a1.248,1.248,0,0,0,.72-.63,1.558,1.558,0,0,0,.21-.75,1.186,1.186,0,0,0-.63-1.17,4.942,4.942,0,0,0-1.889-.3H43.763v3h2.129a4.912,4.912,0,0,0,1.349-.15m.78,2.219a3.387,3.387,0,0,0-1.829-.39H43.763v3.359h2.519c1.589,0,2.369-.57,2.369-1.709a1.358,1.358,0,0,0-.63-1.26" transform="translate(-0.07)" fill="#e30613"/>
    <path id="Path_32" data-name="Path 32" d="M53.33,0H22.921L21.152,11.066a2.837,2.837,0,0,1,1.29,2.4v.15l13.465,6.957a2.829,2.829,0,0,1,1.769-.63A2.879,2.879,0,1,1,34.8,22.821v-.18L21.362,15.684a2.85,2.85,0,0,1-1.8.63,2.886,2.886,0,0,1-2.009-.81L.1,22.461V39.375A2.137,2.137,0,0,0,2.229,41.5h51.1a2.137,2.137,0,0,0,2.129-2.129V2.129A2.137,2.137,0,0,0,53.33,0M33.9,37.306a3.612,3.612,0,0,1-1.589,1.29,6.089,6.089,0,0,1-2.459.48,5.683,5.683,0,0,1-2.819-.63,3.884,3.884,0,0,1-1.29-1.23,2.756,2.756,0,0,1-.48-1.5.975.975,0,0,1,.3-.72,1,1,0,0,1,.75-.3.968.968,0,0,1,.63.24,1.723,1.723,0,0,1,.45.69,5.373,5.373,0,0,0,.48.93,2.031,2.031,0,0,0,.72.6,2.8,2.8,0,0,0,1.23.24,2.659,2.659,0,0,0,1.679-.48,1.5,1.5,0,0,0,.66-1.2,1.242,1.242,0,0,0-.36-.93,2.258,2.258,0,0,0-.9-.54,12.371,12.371,0,0,0-1.469-.39,8.767,8.767,0,0,1-2.069-.69,3.317,3.317,0,0,1-1.319-1.05,2.777,2.777,0,0,1-.48-1.679,2.925,2.925,0,0,1,.51-1.679,3.451,3.451,0,0,1,1.5-1.14,6.112,6.112,0,0,1,2.309-.39,5.472,5.472,0,0,1,1.829.27,4.357,4.357,0,0,1,1.29.69,3.013,3.013,0,0,1,.75.93,2.251,2.251,0,0,1,.24.93,1.041,1.041,0,0,1-.3.75,1.022,1.022,0,0,1-.75.33.733.733,0,0,1-.6-.21,2.076,2.076,0,0,1-.45-.66,2.737,2.737,0,0,0-.75-1.02,2.267,2.267,0,0,0-1.409-.36,2.5,2.5,0,0,0-1.469.39,1.152,1.152,0,0,0-.54.96,1.013,1.013,0,0,0,.18.6,1.422,1.422,0,0,0,.51.42,3.06,3.06,0,0,0,.66.27c.21.06.6.18,1.11.3a18.2,18.2,0,0,1,1.769.51,5.658,5.658,0,0,1,1.349.66,3.052,3.052,0,0,1,.87.99,3.134,3.134,0,0,1,.3,1.469,3.752,3.752,0,0,1-.57,1.859m4.948.33a1.6,1.6,0,0,1-.33,1.08,1.109,1.109,0,0,1-.87.36,1.089,1.089,0,0,1-.84-.36,1.57,1.57,0,0,1-.33-1.05V28.429a1.464,1.464,0,0,1,.33-1.05,1.046,1.046,0,0,1,.84-.36,1.154,1.154,0,0,1,.87.36,1.6,1.6,0,0,1,.33,1.08Zm11.666-.3a2.948,2.948,0,0,1-1.349,1.14,4.684,4.684,0,0,1-1.2.3,12.312,12.312,0,0,1-1.589.09H42.834a1.5,1.5,0,0,1-1.08-.33,1.6,1.6,0,0,1-.33-1.08V28.789a1.633,1.633,0,0,1,.33-1.11,1.5,1.5,0,0,1,1.08-.33h3.749a10.271,10.271,0,0,1,1.439.09,3.087,3.087,0,0,1,1.08.39,2.372,2.372,0,0,1,.72.63,2.676,2.676,0,0,1,.63,1.8,2.648,2.648,0,0,1-1.739,2.549,2.8,2.8,0,0,1,2.279,2.819,2.9,2.9,0,0,1-.48,1.709" transform="translate(-0.07 0)" fill="#e30613"/>
  </g>
</svg>
