<svg id="Group_2" data-name="Group 2" xmlns="http://www.w3.org/2000/svg" xmlns:xlink="http://www.w3.org/1999/xlink" width="126.513" height="48" viewBox="0 0 126.513 48">
  <defs>
    <clipPath id="clip-path">
      <rect id="Rectangle_2" data-name="Rectangle 2" width="126.513" height="48" fill="none"/>
    </clipPath>
  </defs>
  <g id="Group_1" data-name="Group 1" clip-path="url(#clip-path)">
    <path id="Path_1" data-name="Path 1" d="M0,0H14.31Q24.545,0,24.546,9.045a8.6,8.6,0,0,1-1.488,5.189,6.558,6.558,0,0,1-3.891,2.618,9.457,9.457,0,0,1,4.7,2.713A7.982,7.982,0,0,1,25.9,25.375q0,5.284-2.768,7.5t-8.252,2.214H0ZM14.466,15.234a4.666,4.666,0,0,0,3.682-1.571,6.182,6.182,0,0,0,1.384-4.237q0-5.141-5.275-5.142H5.275v10.95ZM14.727,30.8a6.7,6.7,0,0,0,4.57-1.4q1.592-1.4,1.593-4.832a5.139,5.139,0,0,0-1.75-4.118,6.542,6.542,0,0,0-4.413-1.5H5.275V30.8Z" fill="#e2011b"/>
    <path id="Path_2" data-name="Path 2" d="M134.474,75.215l-8.53,7.014a49.45,49.45,0,0,1-6.552,9.288q-2.955,3.07-4.394,3.07-.77,0-.771-.95a9.409,9.409,0,0,1,1.876-4.728,19.116,19.116,0,0,1,1.708-2.209,25.428,25.428,0,0,1,1.824-1.863q.86-.784,2.274-1.953t1.927-1.606q2.569-5.241,3.7-8.016-2.415,2.57-4.214,4.214a20.4,20.4,0,0,1-3.3,2.531,5.461,5.461,0,0,1-2.711.886q-1.31,0-2.415-2.094a9.116,9.116,0,0,1-1.1-4.3,5.562,5.562,0,0,1,.475-2.158,10.634,10.634,0,0,1,1.49-2.415,19.436,19.436,0,0,1,2.582-2.633,27.843,27.843,0,0,1,3.674-2.634q3.982-2.491,6.192-2.492,1.644,0,1.644,1.207,0,1.671-3.571,3.263a22.753,22.753,0,0,0-4.329,2.518,16.37,16.37,0,0,0-3.469,3.327,5.493,5.493,0,0,0-1.323,3.173,1.7,1.7,0,0,0,.334,1.1,1.07,1.07,0,0,0,.873.411,3.7,3.7,0,0,0,2.055-.822,39.815,39.815,0,0,0,3.417-2.9,30.686,30.686,0,0,0,2.736-3.07,42.332,42.332,0,0,1,2.826-3.237,3.085,3.085,0,0,1,2.017-1.118,1.131,1.131,0,0,1,.835.321,1.272,1.272,0,0,1,.321.938,9.9,9.9,0,0,1-.938,3.43q-.938,2.249-3.378,7.361l6.218-4.522Z" transform="translate(-85.279 -46.587)" fill="#e2011b"/>
    <path id="Path_3" data-name="Path 3" d="M199.113,76.186v.642a3.46,3.46,0,0,0,.745,2.364,2.474,2.474,0,0,0,1.953.848,6.478,6.478,0,0,0,2.608-.591,14.25,14.25,0,0,0,2.685-1.567q1.336-.976,3.263-2.621v1.567a31.876,31.876,0,0,1-5.447,5.357,8.675,8.675,0,0,1-5.164,1.863,4.3,4.3,0,0,1-3.623-1.773,7.9,7.9,0,0,1-1.336-4.856,9.666,9.666,0,0,1,1.259-4.895,18.59,18.59,0,0,1,4.111-4.637,15.871,15.871,0,0,1,3.879-2.518,8.7,8.7,0,0,1,3.443-.848,3.032,3.032,0,0,1,1.914.552,1.976,1.976,0,0,1,.706,1.657,5.346,5.346,0,0,1-1.207,3.224,13.927,13.927,0,0,1-3.687,3.186,37.755,37.755,0,0,1-6.1,3.045m.257-1.67a14.621,14.621,0,0,0,3.957-2.235,11.388,11.388,0,0,0,2.428-2.556,4.02,4.02,0,0,0,.784-1.786q0-.591-.539-.591a3.69,3.69,0,0,0-1.5.591,12.41,12.41,0,0,0-2.107,1.541,11.36,11.36,0,0,0-1.914,2.235,7.222,7.222,0,0,0-1.1,2.8" transform="translate(-145.988 -48.354)" fill="#e2011b"/>
    <path id="Path_4" data-name="Path 4" d="M282.143,79.3c-4.843.873-9.668,1.846-14.615,1.858-.49,0-.98,0-1.473-.023a8.3,8.3,0,0,1-2.7-.713,5.576,5.576,0,0,1-2.256-1.3,3.6,3.6,0,0,1-.668-2.292v-.642a37.733,37.733,0,0,0,6.1-3.045,13.932,13.932,0,0,0,3.687-3.186,5.348,5.348,0,0,0,1.207-3.225,1.974,1.974,0,0,0-.707-1.657,3.029,3.029,0,0,0-1.914-.552,8.7,8.7,0,0,0-3.443.848,15.862,15.862,0,0,0-3.879,2.518,18.6,18.6,0,0,0-4.111,4.637,9.668,9.668,0,0,0-1.259,4.895,7.9,7.9,0,0,0,1.336,4.856,4.233,4.233,0,0,0,2.3,1.6,12.882,12.882,0,0,0,4.813.614c8.911-.076,17.593-1.9,26.262-3.794,8.158-1.781,16.312-3.8,24.8-2.569,1.026.149,2.156.407,2.824-1.036-12.366-1.878-24.346.054-36.311,2.211m-20.35-7.582a11.343,11.343,0,0,1,1.914-2.235,12.408,12.408,0,0,1,2.107-1.541,3.688,3.688,0,0,1,1.5-.591q.54,0,.54.591a4.016,4.016,0,0,1-.784,1.786,11.381,11.381,0,0,1-2.428,2.556,14.618,14.618,0,0,1-3.956,2.235,7.218,7.218,0,0,1,1.1-2.8" transform="translate(-191.942 -48.354)" fill="#e2011b"/>
  </g>
</svg>
