<?xml version="1.0" encoding="UTF-8" standalone="no"?>
<svg
   id="Group_2"
   data-name="Group 2"
   width="126.513"
   height="48"
   viewBox="0 0 126.513 48"
   version="1.1"
   sodipodi:docname="logo-bgee-v3.svg"
   inkscape:version="1.3.2 (1:1.3.2+202311252150+091e20ef0f)"
   xmlns:inkscape="http://www.inkscape.org/namespaces/inkscape"
   xmlns:sodipodi="http://sodipodi.sourceforge.net/DTD/sodipodi-0.dtd"
   xmlns="http://www.w3.org/2000/svg"
   xmlns:svg="http://www.w3.org/2000/svg">
  <sodipodi:namedview
     id="namedview1"
     pagecolor="#ffffff"
     bordercolor="#000000"
     borderopacity="0.25"
     inkscape:showpageshadow="2"
     inkscape:pageopacity="0.0"
     inkscape:pagecheckerboard="0"
     inkscape:deskcolor="#d1d1d1"
     inkscape:zoom="7.7857611"
     inkscape:cx="63.2565"
     inkscape:cy="24.018204"
     inkscape:window-width="1528"
     inkscape:window-height="1136"
     inkscape:window-x="72"
     inkscape:window-y="27"
     inkscape:window-maximized="1"
     inkscape:current-layer="Group_2" />
  <defs
     id="defs1">
    <clipPath
       id="clip-path">
      <rect
         id="Rectangle_2"
         data-name="Rectangle 2"
         width="126.513"
         height="48"
         fill="none" />
    </clipPath>
    <clipPath
       clipPathUnits="userSpaceOnUse"
       id="clipPath8">
      <path
         d="M 0,1122.56 H 793.76 V 0 H 0 Z"
         transform="translate(-677.11511,-1060.0796)"
         id="path8" />
    </clipPath>
    <clipPath
       clipPathUnits="userSpaceOnUse"
       id="clipPath6">
      <path
         d="M 0,1122.56 H 793.76 V 0 H 0 Z"
         transform="translate(-652.36511,-1060.0796)"
         id="path6" />
    </clipPath>
    <clipPath
       clipPathUnits="userSpaceOnUse"
       id="clipPath4">
      <path
         d="M 0,1122.56 H 793.76 V 0 H 0 Z"
         transform="translate(-677.11511,-1060.0798)"
         id="path4" />
    </clipPath>
    <clipPath
       clipPathUnits="userSpaceOnUse"
       id="clipPath6-2">
      <path
         d="M 0,1122.56 H 793.76 V 0 H 0 Z"
         transform="translate(-652.36511,-1060.0796)"
         id="path6-4" />
    </clipPath>
    <clipPath
       clipPathUnits="userSpaceOnUse"
       id="clipPath8-1">
      <path
         d="M 0,1122.56 H 793.76 V 0 H 0 Z"
         transform="translate(-677.11511,-1060.0796)"
         id="path8-2" />
    </clipPath>
  </defs>
  <g
     id="Group_1"
     data-name="Group 1"
     clip-path="url(#clip-path)">
    <path
       id="Path_1"
       data-name="Path 1"
       d="M0,0H14.31Q24.545,0,24.546,9.045a8.6,8.6,0,0,1-1.488,5.189,6.558,6.558,0,0,1-3.891,2.618,9.457,9.457,0,0,1,4.7,2.713A7.982,7.982,0,0,1,25.9,25.375q0,5.284-2.768,7.5t-8.252,2.214H0ZM14.466,15.234a4.666,4.666,0,0,0,3.682-1.571,6.182,6.182,0,0,0,1.384-4.237q0-5.141-5.275-5.142H5.275v10.95ZM14.727,30.8a6.7,6.7,0,0,0,4.57-1.4q1.592-1.4,1.593-4.832a5.139,5.139,0,0,0-1.75-4.118,6.542,6.542,0,0,0-4.413-1.5H5.275V30.8Z"
       fill="#e2011b" />
    <path
       id="Path_2"
       data-name="Path 2"
       d="M134.474,75.215l-8.53,7.014a49.45,49.45,0,0,1-6.552,9.288q-2.955,3.07-4.394,3.07-.77,0-.771-.95a9.409,9.409,0,0,1,1.876-4.728,19.116,19.116,0,0,1,1.708-2.209,25.428,25.428,0,0,1,1.824-1.863q.86-.784,2.274-1.953t1.927-1.606q2.569-5.241,3.7-8.016-2.415,2.57-4.214,4.214a20.4,20.4,0,0,1-3.3,2.531,5.461,5.461,0,0,1-2.711.886q-1.31,0-2.415-2.094a9.116,9.116,0,0,1-1.1-4.3,5.562,5.562,0,0,1,.475-2.158,10.634,10.634,0,0,1,1.49-2.415,19.436,19.436,0,0,1,2.582-2.633,27.843,27.843,0,0,1,3.674-2.634q3.982-2.491,6.192-2.492,1.644,0,1.644,1.207,0,1.671-3.571,3.263a22.753,22.753,0,0,0-4.329,2.518,16.37,16.37,0,0,0-3.469,3.327,5.493,5.493,0,0,0-1.323,3.173,1.7,1.7,0,0,0,.334,1.1,1.07,1.07,0,0,0,.873.411,3.7,3.7,0,0,0,2.055-.822,39.815,39.815,0,0,0,3.417-2.9,30.686,30.686,0,0,0,2.736-3.07,42.332,42.332,0,0,1,2.826-3.237,3.085,3.085,0,0,1,2.017-1.118,1.131,1.131,0,0,1,.835.321,1.272,1.272,0,0,1,.321.938,9.9,9.9,0,0,1-.938,3.43q-.938,2.249-3.378,7.361l6.218-4.522Z"
       transform="translate(-85.279 -46.587)"
       fill="#e2011b" />
    <path
       id="Path_3"
       data-name="Path 3"
       d="M199.113,76.186v.642a3.46,3.46,0,0,0,.745,2.364,2.474,2.474,0,0,0,1.953.848,6.478,6.478,0,0,0,2.608-.591,14.25,14.25,0,0,0,2.685-1.567q1.336-.976,3.263-2.621v1.567a31.876,31.876,0,0,1-5.447,5.357,8.675,8.675,0,0,1-5.164,1.863,4.3,4.3,0,0,1-3.623-1.773,7.9,7.9,0,0,1-1.336-4.856,9.666,9.666,0,0,1,1.259-4.895,18.59,18.59,0,0,1,4.111-4.637,15.871,15.871,0,0,1,3.879-2.518,8.7,8.7,0,0,1,3.443-.848,3.032,3.032,0,0,1,1.914.552,1.976,1.976,0,0,1,.706,1.657,5.346,5.346,0,0,1-1.207,3.224,13.927,13.927,0,0,1-3.687,3.186,37.755,37.755,0,0,1-6.1,3.045m.257-1.67a14.621,14.621,0,0,0,3.957-2.235,11.388,11.388,0,0,0,2.428-2.556,4.02,4.02,0,0,0,.784-1.786q0-.591-.539-.591a3.69,3.69,0,0,0-1.5.591,12.41,12.41,0,0,0-2.107,1.541,11.36,11.36,0,0,0-1.914,2.235,7.222,7.222,0,0,0-1.1,2.8"
       transform="translate(-145.988 -48.354)"
       fill="#e2011b" />
    <path
       id="Path_4"
       data-name="Path 4"
       d="M282.143,79.3c-4.843.873-9.668,1.846-14.615,1.858-.49,0-.98,0-1.473-.023a8.3,8.3,0,0,1-2.7-.713,5.576,5.576,0,0,1-2.256-1.3,3.6,3.6,0,0,1-.668-2.292v-.642a37.733,37.733,0,0,0,6.1-3.045,13.932,13.932,0,0,0,3.687-3.186,5.348,5.348,0,0,0,1.207-3.225,1.974,1.974,0,0,0-.707-1.657,3.029,3.029,0,0,0-1.914-.552,8.7,8.7,0,0,0-3.443.848,15.862,15.862,0,0,0-3.879,2.518,18.6,18.6,0,0,0-4.111,4.637,9.668,9.668,0,0,0-1.259,4.895,7.9,7.9,0,0,0,1.336,4.856,4.233,4.233,0,0,0,2.3,1.6,12.882,12.882,0,0,0,4.813.614c8.911-.076,17.593-1.9,26.262-3.794,8.158-1.781,16.312-3.8,24.8-2.569,1.026.149,2.156.407,2.824-1.036-12.366-1.878-24.346.054-36.311,2.211m-20.35-7.582a11.343,11.343,0,0,1,1.914-2.235,12.408,12.408,0,0,1,2.107-1.541,3.688,3.688,0,0,1,1.5-.591q.54,0,.54.591a4.016,4.016,0,0,1-.784,1.786,11.381,11.381,0,0,1-2.428,2.556,14.618,14.618,0,0,1-3.956,2.235,7.218,7.218,0,0,1,1.1-2.8"
       transform="translate(-191.942 -48.354)"
       fill="#e2011b" />
  </g>
  <path
     id="path3"
     d="m 0,0 h -11.058 -3.977 -9.715 c -4.887,0 -8.885,-3.998 -8.885,-8.885 v -16.631 -3.504 -4.615 c 0,-4.887 3.998,-8.885 8.885,-8.885 H 0 c 4.886,0 8.885,3.998 8.885,8.885 v 24.75 C 8.885,-3.998 4.886,0 0,0"
     style="fill:#ffffff;fill-opacity:1;fill-rule:nonzero;stroke:none"
     transform="matrix(0.34019954,0,0,-0.34991232,118.52762,0.19287509)"
     clip-path="url(#clipPath4)" />
  <path
     id="path5"
     d="m 0,0 c -4.887,0 -8.885,-3.998 -8.885,-8.885 v -13.007 l 9.85,3.93 c 0.073,1.846 1.35,3.377 3.069,3.833 L 6.305,0 Z"
     style="fill:#ee2623;fill-opacity:1;fill-rule:nonzero;stroke:none"
     transform="matrix(0.34019954,0,0,-0.34991232,110.10768,0.19294489)"
     clip-path="url(#clipPath6-2)" />
  <path
     id="path7"
     d="m 0,0 h -15.035 l -2.356,-14.661 c 1.129,-0.739 1.877,-2.014 1.877,-3.465 0,-0.079 -0.007,-0.157 -0.012,-0.235 l 12.683,-7.114 c 0.705,0.555 1.591,0.889 2.558,0.889 2.286,0 4.14,-1.854 4.14,-4.14 0,-2.286 -1.854,-4.14 -4.14,-4.14 -2.287,0 -4.14,1.854 -4.14,4.14 0,0.091 0.008,0.181 0.014,0.271 l -12.655,7.1 c -0.709,-0.568 -1.608,-0.91 -2.588,-0.91 -1.123,0 -2.141,0.449 -2.887,1.176 l -11.094,-4.427 v -8.119 c 0,-4.886 3.998,-8.885 8.885,-8.885 H 0 c 4.887,0 8.885,3.999 8.885,8.885 v 24.75 C 8.885,-3.998 4.887,0 0,0"
     style="fill:#ee2623;fill-opacity:1;fill-rule:nonzero;stroke:none"
     transform="matrix(0.34019954,0,0,-0.34991232,118.52762,0.19294489)"
     clip-path="url(#clipPath8-1)" />
</svg>
